<?xml version="1.0" encoding="UTF-8"?>
<svg version="1.1" xmlns="http://www.w3.org/2000/svg" width="512" height="512">
<path d="M0 0 C-1.26100537 6.23120709 -2.9249525 12.20043205 -4.9765625 18.21484375 C-5.26550385 19.06945694 -5.55444519 19.92407013 -5.85214233 20.80458069 C-6.46324379 22.6063202 -7.0768591 24.40720887 -7.69287109 26.20727539 C-8.61086556 28.89609993 -9.51483522 31.58935677 -10.41796875 34.28320312 C-15.45683474 49.15683868 -21.38323813 63.61366204 -28.75 77.5 C-29.16064697 78.27496826 -29.57129395 79.04993652 -29.99438477 79.84838867 C-40.42621964 99.1193077 -53.86243522 116.24034351 -69 132 C-69.8559375 132.8971875 -70.711875 133.794375 -71.59375 134.71875 C-77.36736599 140.63853348 -83.50453364 145.89140348 -90 151 C-90.97453125 151.79148438 -91.9490625 152.58296875 -92.953125 153.3984375 C-120.95392138 175.70057934 -153.60108883 189.11313338 -188 198 C-188.77746582 198.20898926 -189.55493164 198.41797852 -190.35595703 198.63330078 C-193.72920252 199.52271707 -196.47977572 200 -200 200 C-194.82568631 145.70245504 -159.78022006 90.66040632 -118.5 56.25 C-116.67808113 54.81868341 -114.84404663 53.40269297 -113 52 C-112.47035645 51.58862793 -111.94071289 51.17725586 -111.39501953 50.75341797 C-85.86095833 30.97165603 -57.44255037 18.28762895 -27 8 C-24.66397505 7.19947389 -22.3280361 6.39869677 -19.9921875 5.59765625 C-17.80782521 4.85519926 -15.62295192 4.11424346 -13.4375 3.375 C-12.42631104 3.03186768 -11.41512207 2.68873535 -10.37329102 2.33520508 C-9.44444092 2.02607178 -8.51559082 1.71693848 -7.55859375 1.3984375 C-6.74704834 1.12692871 -5.93550293 0.85541992 -5.09936523 0.57568359 C-3 0 -3 0 0 0 Z " fill="#F0BC5D" transform="translate(509,3)"/>
<path d="M0 0 C54.29754496 5.17431369 109.33959368 40.21977994 143.75 81.5 C145.18131659 83.32191887 146.59730703 85.15595337 148 87 C148.61705811 87.79446533 148.61705811 87.79446533 149.24658203 88.60498047 C169.02834397 114.13904167 181.71237105 142.55744963 192 173 C192.80052611 175.33602495 193.60130323 177.6719639 194.40234375 180.0078125 C195.14480074 182.19217479 195.88575654 184.37704808 196.625 186.5625 C197.13969849 188.07928345 197.13969849 188.07928345 197.66479492 189.62670898 C197.97392822 190.55555908 198.28306152 191.48440918 198.6015625 192.44140625 C199.00882568 193.65872437 199.00882568 193.65872437 199.42431641 194.90063477 C200 197 200 197 200 200 C193.79630236 198.74179093 187.84654127 197.09386324 181.85546875 195.05859375 C181.01176224 194.77506042 180.16805573 194.4915271 179.29878235 194.19940186 C176.59253136 193.28591438 173.88959194 192.36321335 171.1875 191.4375 C170.26582031 191.12253571 169.34414063 190.80757141 168.39453125 190.48306274 C155.26272521 185.98030816 142.39295318 181.30089483 130 175 C129.29198242 174.65195312 128.58396484 174.30390625 127.85449219 173.9453125 C105.55010724 162.96839023 85.8775355 148.17184331 68 131 C67.1028125 130.1440625 66.205625 129.288125 65.28125 128.40625 C59.36146652 122.63263401 54.10859652 116.49546636 49 110 C48.20851563 109.02546875 47.41703125 108.0509375 46.6015625 107.046875 C24.29942066 79.04607862 10.88686662 46.39891117 2 12 C1.79101074 11.22253418 1.58202148 10.44506836 1.36669922 9.64404297 C0.47728293 6.27079748 0 3.52022428 0 0 Z " fill="#F0BB5D" transform="translate(309,309)"/>
<path d="M0 0 C-3.56511577 37.41115154 -22.77470328 76.88483487 -46 106 C-46.71671875 106.90878906 -47.4334375 107.81757813 -48.171875 108.75390625 C-59.71048048 123.13624606 -72.40492863 136.69449135 -87 148 C-87.53689453 148.41862305 -88.07378906 148.83724609 -88.62695312 149.26855469 C-114.15542688 169.03773442 -142.56925719 181.71636125 -173 192 C-175.33602495 192.80052611 -177.6719639 193.60130323 -180.0078125 194.40234375 C-182.19217479 195.14480074 -184.37704808 195.88575654 -186.5625 196.625 C-188.07928345 197.13969849 -188.07928345 197.13969849 -189.62670898 197.66479492 C-190.55555908 197.97392822 -191.48440918 198.28306152 -192.44140625 198.6015625 C-193.65872437 199.00882568 -193.65872437 199.00882568 -194.90063477 199.42431641 C-197 200 -197 200 -200 200 C-198.73899463 193.76879291 -197.0750475 187.79956795 -195.0234375 181.78515625 C-194.59002548 180.50323647 -194.59002548 180.50323647 -194.14785767 179.19541931 C-193.53675621 177.3936798 -192.9231409 175.59279113 -192.30712891 173.79272461 C-191.38913444 171.10390007 -190.48516478 168.41064323 -189.58203125 165.71679688 C-184.54316526 150.84316132 -178.61676187 136.38633796 -171.25 122.5 C-170.83935303 121.72503174 -170.42870605 120.95006348 -170.00561523 120.15161133 C-159.57378036 100.8806923 -146.13756478 83.75965649 -131 68 C-130.1440625 67.1028125 -129.288125 66.205625 -128.40625 65.28125 C-122.63263401 59.36146652 -116.49546636 54.10859652 -110 49 C-109.02546875 48.20851563 -108.0509375 47.41703125 -107.046875 46.6015625 C-79.04607862 24.29942066 -46.39891117 10.88686662 -12 2 C-11.22253418 1.79101074 -10.44506836 1.58202148 -9.64404297 1.36669922 C-6.27079748 0.47728293 -3.52022428 0 0 0 Z " fill="#F0BB5D" transform="translate(203,309)"/>
<path d="M0 0 C6.23120709 1.26100537 12.20043205 2.9249525 18.21484375 4.9765625 C19.06945694 5.26550385 19.92407013 5.55444519 20.80458069 5.85214233 C22.6063202 6.46324379 24.40720887 7.0768591 26.20727539 7.69287109 C28.89609993 8.61086556 31.58935677 9.51483522 34.28320312 10.41796875 C49.15683868 15.45683474 63.61366204 21.38323813 77.5 28.75 C78.27496826 29.16064697 79.04993652 29.57129395 79.84838867 29.99438477 C99.1193077 40.42621964 116.24034351 53.86243522 132 69 C132.8971875 69.8559375 133.794375 70.711875 134.71875 71.59375 C140.63853348 77.36736599 145.89140348 83.50453364 151 90 C151.79148438 90.97453125 152.58296875 91.9490625 153.3984375 92.953125 C175.70057934 120.95392138 189.11313338 153.60108883 198 188 C198.20898926 188.77746582 198.41797852 189.55493164 198.63330078 190.35595703 C199.52271707 193.72920252 200 196.47977572 200 200 C162.58884846 196.43488423 123.11516513 177.22529672 94 154 C93.09121094 153.28328125 92.18242188 152.5665625 91.24609375 151.828125 C76.86375394 140.28951952 63.30550865 127.59507137 52 113 C51.37206543 112.1946582 51.37206543 112.1946582 50.73144531 111.37304688 C30.96226558 85.84457312 18.28363875 57.43074281 8 27 C7.19947389 24.66397505 6.39869677 22.3280361 5.59765625 19.9921875 C4.85519926 17.80782521 4.11424346 15.62295192 3.375 13.4375 C2.86030151 11.92071655 2.86030151 11.92071655 2.33520508 10.37329102 C1.87150513 8.98001587 1.87150513 8.98001587 1.3984375 7.55859375 C1.12692871 6.74704834 0.85541992 5.93550293 0.57568359 5.09936523 C0 3 0 3 0 0 Z " fill="#F0BC5D" transform="translate(3,3)"/>
<path d="M0 0 C0.66 0 1.32 0 2 0 C4.33164069 8.51843101 6.66144356 17.03736189 8.98891354 25.5569334 C10.06975228 29.51305607 11.15121894 33.46900482 12.23413086 37.42456055 C13.27952553 41.24316821 14.32325735 45.06222681 15.36584663 48.88160133 C15.76354571 50.33737116 16.16183974 51.79297858 16.56074333 53.24841881 C17.12012369 55.28977655 17.67736998 57.3317058 18.23413086 59.3737793 C18.55167831 60.53515915 18.86922577 61.696539 19.19639587 62.89311218 C19.88962676 65.57327587 20.4570789 68.28539448 21 71 C40.8 71 60.6 71 81 71 C75.37641723 76.62358277 75.37641723 76.62358277 72.390625 78.875 C71.72667725 79.37894287 71.06272949 79.88288574 70.37866211 80.40209961 C69.67620361 80.92940674 68.97374512 81.45671387 68.25 82 C66.73558484 83.14701364 65.22126476 84.29415282 63.70703125 85.44140625 C62.93182129 86.02680176 62.15661133 86.61219727 61.35791016 87.21533203 C57.53846899 90.1062116 53.73904429 93.02315235 49.9375 95.9375 C44.64864549 99.99035852 39.33596257 104.00936024 34 108 C36.33118925 115.316237 39.11246151 122.38207485 42.03515625 129.48046875 C42.51448105 130.65209061 42.99380585 131.82371246 43.48765564 133.03083801 C44.75236355 136.12158652 46.01933774 139.21138223 47.28778076 142.30059814 C49.07691124 146.65819437 50.8638635 151.01667651 52.64805603 155.376297 C53.59544887 157.69097273 54.5447204 160.00488063 55.49610901 162.31791687 C56.14204262 163.89534416 56.14204262 163.89534416 56.80102539 165.50463867 C57.17836319 166.42347336 57.55570099 167.34230804 57.94447327 168.28898621 C59.0637889 171.16383534 60.04738775 174.06612819 61 177 C57.13774461 175.32198127 54.01321305 172.79660053 50.75 170.1875 C50.1415625 169.70539063 49.533125 169.22328125 48.90625 168.7265625 C43.55995646 164.47778044 38.26568742 160.16491117 32.97485352 155.84741211 C28.01788491 151.80806745 23.00724001 147.84328171 17.96826172 143.90698242 C12.57665114 139.68769912 7.2771698 135.36174239 2 131 C-0.76655418 132.29108381 -3.04962067 133.7064804 -5.3984375 135.65234375 C-6.03523438 136.17570313 -6.67203125 136.6990625 -7.328125 137.23828125 C-8.00359375 137.79902344 -8.6790625 138.35976563 -9.375 138.9375 C-10.81953475 140.12464492 -12.26486093 141.31082742 -13.7109375 142.49609375 C-14.7952002 143.38530518 -14.7952002 143.38530518 -15.90136719 144.29248047 C-18.90334794 146.73499482 -21.94741203 149.12125107 -25 151.5 C-30.84722345 156.06391222 -36.60818293 160.72784744 -42.35546875 165.41674805 C-47.18219039 169.34978691 -52.05189004 173.22019378 -57 177 C-57.66 176.67 -58.32 176.34 -59 176 C-56.28025425 169.33276821 -53.56006842 162.66571609 -50.83959961 155.9987793 C-49.9173016 153.73840241 -48.99509841 151.47798682 -48.07299805 149.2175293 C-47.17713185 147.02141624 -46.28102551 144.82540113 -45.38467407 142.62948608 C-44.50343787 140.46933895 -43.62336419 138.30871718 -42.74447632 136.14761353 C-40.77935063 131.32189661 -38.79963488 126.50507159 -36.75048828 121.71435547 C-36.24764061 120.52929665 -36.24764061 120.52929665 -35.7346344 119.32029724 C-35.12110965 117.87904404 -34.49998597 116.44099141 -33.86973572 115.00697327 C-32.1514661 111.11050177 -32.1514661 111.11050177 -33 107 C-34.69638875 105.42427433 -34.69638875 105.42427433 -36.83984375 103.91796875 C-37.64711914 103.32234131 -38.45439453 102.72671387 -39.28613281 102.11303711 C-40.16108398 101.47760986 -41.03603516 100.84218262 -41.9375 100.1875 C-43.76537966 98.83997394 -45.59217939 97.4909819 -47.41796875 96.140625 C-48.34786621 95.45419922 -49.27776367 94.76777344 -50.23583984 94.06054688 C-55.18906726 90.36815689 -60.0474107 86.5553989 -64.90991211 82.74487305 C-65.59448486 82.20902588 -66.27905762 81.67317871 -66.984375 81.12109375 C-67.64115234 80.60659668 -68.29792969 80.09209961 -68.97460938 79.56201172 C-71.79415458 77.38753604 -74.66322063 75.2817782 -77.54003906 73.18383789 C-78.02182617 72.79317139 -78.50361328 72.40250488 -79 72 C-79 71.67 -79 71.34 -79 71 C-59.2 71 -39.4 71 -19 71 C-17.68 65.72 -16.36 60.44 -15 55 C-13.79021426 50.46411 -12.57031308 45.93313652 -11.328125 41.40625 C-11.00084412 40.20810669 -10.67356323 39.00996338 -10.33636475 37.7755127 C-9.30919107 34.01656475 -8.27964369 30.25827202 -7.25 26.5 C-6.54521896 23.92327373 -5.84098608 21.34639802 -5.13671875 18.76953125 C-3.42629194 12.51252385 -1.71392552 6.25604988 0 0 Z " fill="#F0BC5D" transform="translate(255,177)"/>
<path d="M0 0 C5.28 0 10.56 0 16 0 C16 50.16 16 100.32 16 152 C21.28 152 26.56 152 32 152 C32 101.84 32 51.68 32 0 C37.28 0 42.56 0 48 0 C48.09260066 20.49697865 48.16398088 40.9939069 48.20724869 61.49105263 C48.22787279 71.00826768 48.2559905 80.52535037 48.30175781 90.04248047 C48.34163021 98.33774192 48.36743392 106.6329075 48.37635398 114.92826211 C48.38156805 119.32051675 48.39381979 123.71249713 48.42292023 128.10466385 C48.45009575 132.23985321 48.45844073 136.37465567 48.45243073 140.50992584 C48.45353001 142.02645598 48.46147142 143.54299922 48.4768219 145.05945206 C48.49678465 147.13350108 48.4919181 149.20609783 48.48101807 151.28018188 C48.48470524 152.43979746 48.48839241 153.59941303 48.49219131 154.79416847 C47.72571998 159.78649139 45.15313041 162.86204235 41.625 166.34375 C35.88462003 168.96650981 30.23123859 168.57661359 24 168.5 C22.741875 168.51546875 21.48375 168.5309375 20.1875 168.546875 C8.55756355 168.49759561 8.55756355 168.49759561 4 164 C0.59158467 159.61313042 -0.49863947 156.82211273 -0.48101807 151.28018188 C-0.48443577 150.62985406 -0.48785347 149.97952624 -0.49137473 149.30949152 C-0.49793016 147.14418387 -0.47601899 144.98013358 -0.45410156 142.81494141 C-0.45297257 141.25742624 -0.45360797 139.69990895 -0.45587158 138.14239502 C-0.45701763 133.92368917 -0.43352622 129.70543971 -0.40557575 125.48683977 C-0.38054382 121.074614 -0.37821869 116.66237737 -0.37347412 112.25009155 C-0.3610496 103.89910555 -0.32823511 95.5483294 -0.28807616 87.19743574 C-0.24334213 77.68843825 -0.22136731 68.17943067 -0.20129442 58.67035413 C-0.159502 39.1134492 -0.0883529 19.55674522 0 0 Z " fill="#000000" transform="translate(232,336)"/>
<path d="M0 0 C20.49697865 -0.09260066 40.9939069 -0.16398088 61.49105263 -0.20724869 C71.00826768 -0.22787279 80.52535037 -0.2559905 90.04248047 -0.30175781 C98.33774192 -0.34163021 106.6329075 -0.36743392 114.92826211 -0.37635398 C119.32051675 -0.38156805 123.71249713 -0.39381979 128.10466385 -0.42292023 C132.23985321 -0.45009575 136.37465567 -0.45844073 140.50992584 -0.45243073 C142.02645598 -0.45353001 143.54299922 -0.46147142 145.05945206 -0.4768219 C147.13350108 -0.49678465 149.20609783 -0.4919181 151.28018188 -0.48101807 C152.43979746 -0.48470524 153.59941303 -0.48839241 154.79416847 -0.49219131 C159.78649139 0.27428002 162.86204235 2.84686959 166.34375 6.375 C168.96650981 12.11537997 168.57661359 17.76876141 168.5 24 C168.52320313 25.8871875 168.52320313 25.8871875 168.546875 27.8125 C168.49759561 39.44243645 168.49759561 39.44243645 164 44 C159.61313042 47.40841533 156.82211273 48.49863947 151.28018188 48.48101807 C150.62985406 48.48443577 149.97952624 48.48785347 149.30949152 48.49137473 C147.14418387 48.49793016 144.98013358 48.47601899 142.81494141 48.45410156 C141.25742624 48.45297257 139.69990895 48.45360797 138.14239502 48.45587158 C133.92368917 48.45701763 129.70543971 48.43352622 125.48683977 48.40557575 C121.074614 48.38054382 116.66237737 48.37821869 112.25009155 48.37347412 C103.89910555 48.3610496 95.5483294 48.32823511 87.19743574 48.28807616 C77.68843825 48.24334213 68.17943067 48.22136731 58.67035413 48.20129442 C39.1134492 48.159502 19.55674522 48.0883529 0 48 C0 42.72 0 37.44 0 32 C50.16 32 100.32 32 152 32 C152 26.72 152 21.44 152 16 C101.84 16 51.68 16 0 16 C0 10.72 0 5.44 0 0 Z " fill="#000000" transform="translate(336,232)"/>
<path d="M0 0 C0.65032782 -0.0034177 1.30065564 -0.0068354 1.97069037 -0.01035666 C4.13599801 -0.01691209 6.3000483 0.00499908 8.46524048 0.0269165 C10.02275564 0.0280455 11.58027294 0.0274101 13.13778687 0.02514648 C17.35649272 0.02400043 21.57474218 0.04749185 25.79334211 0.07544231 C30.20556788 0.10047425 34.61780451 0.10279938 39.03009033 0.10754395 C47.38107634 0.11996846 55.73185249 0.15278296 64.08274615 0.1929419 C73.59174363 0.23767594 83.10075122 0.25965076 92.60982776 0.27972364 C112.16673269 0.32151607 131.72343666 0.39266516 151.28018188 0.48101807 C151.28018188 5.76101807 151.28018188 11.04101807 151.28018188 16.48101807 C101.12018188 16.48101807 50.96018188 16.48101807 -0.71981812 16.48101807 C-0.71981812 21.76101807 -0.71981812 27.04101807 -0.71981812 32.48101807 C49.44018188 32.48101807 99.60018188 32.48101807 151.28018188 32.48101807 C151.28018188 37.76101807 151.28018188 43.04101807 151.28018188 48.48101807 C130.78320324 48.57361873 110.28627498 48.64499894 89.78912926 48.68826675 C80.2719142 48.70889086 70.75483151 48.73700857 61.23770142 48.78277588 C52.94243997 48.82264828 44.64727438 48.84845198 36.35191977 48.85737205 C31.95966514 48.86258612 27.56768476 48.87483786 23.17551804 48.90393829 C19.04032868 48.93111382 14.90552622 48.9394588 10.77025604 48.93344879 C9.25372591 48.93454808 7.73718267 48.94248948 6.22072983 48.95783997 C4.14668081 48.97780272 2.07408405 48.97293617 0 48.96203613 C-1.73942336 48.96756689 -1.73942336 48.96756689 -3.51398659 48.97320938 C-8.5063095 48.20673804 -11.58186047 45.63414848 -15.06356812 42.10601807 C-17.68632793 36.3656381 -17.2964317 30.71225666 -17.21981812 24.48101807 C-17.23528687 23.22289307 -17.25075562 21.96476807 -17.26669312 20.66851807 C-17.21741372 9.03858162 -17.21741372 9.03858162 -12.71981812 4.48101807 C-8.33294853 1.07260273 -5.54193084 -0.0176214 0 0 Z " fill="#000000" transform="translate(24.719818115234375,231.51898193359375)"/>
<path d="M0 0 C1.258125 -0.01546875 2.51625 -0.0309375 3.8125 -0.046875 C15.44243645 0.00240439 15.44243645 0.00240439 20 4.5 C23.40841533 8.88686958 24.49863947 11.67788727 24.48101807 17.21981812 C24.48443577 17.87014594 24.48785347 18.52047376 24.49137473 19.19050848 C24.49793016 21.35581613 24.47601899 23.51986642 24.45410156 25.68505859 C24.45297257 27.24257376 24.45360797 28.80009105 24.45587158 30.35760498 C24.45701763 34.57631083 24.43352622 38.79456029 24.40557575 43.01316023 C24.38054382 47.425386 24.37821869 51.83762263 24.37347412 56.24990845 C24.3610496 64.60089445 24.32823511 72.9516706 24.28807616 81.30256426 C24.24334213 90.81156175 24.22136731 100.32056933 24.20129442 109.82964587 C24.159502 129.3865508 24.0883529 148.94325478 24 168.5 C18.72 168.5 13.44 168.5 8 168.5 C8 118.34 8 68.18 8 16.5 C2.72 16.5 -2.56 16.5 -8 16.5 C-8 66.66 -8 116.82 -8 168.5 C-13.28 168.5 -18.56 168.5 -24 168.5 C-24.09260066 148.00302135 -24.16398088 127.5060931 -24.20724869 107.00894737 C-24.22787279 97.49173232 -24.2559905 87.97464963 -24.30175781 78.45751953 C-24.34163021 70.16225808 -24.36743392 61.8670925 -24.37635398 53.57173789 C-24.38156805 49.17948325 -24.39381979 44.78750287 -24.42292023 40.39533615 C-24.45009575 36.26014679 -24.45844073 32.12534433 -24.45243073 27.99007416 C-24.45353001 26.47354402 -24.46147142 24.95700078 -24.4768219 23.44054794 C-24.49678465 21.36649892 -24.4919181 19.29390217 -24.48101807 17.21981812 C-24.48470524 16.06020254 -24.48839241 14.90058697 -24.49219131 13.70583153 C-23.72571998 8.71350861 -21.15313041 5.63795765 -17.625 2.15625 C-11.88462003 -0.46650981 -6.23123859 -0.07661359 0 0 Z " fill="#000000" transform="translate(256,7.5)"/>
<path d="M0 0 C1.32676697 2.40089417 1.32676697 2.40089417 2.50756836 5.65063477 C2.96073929 6.87317459 3.41391022 8.09571442 3.8808136 9.3553009 C4.36740199 10.71724851 4.85373739 12.07928652 5.33984375 13.44140625 C5.85880113 14.85837359 6.37923452 16.27480111 6.90104675 17.6907196 C8.30603423 21.5145453 9.69185397 25.34506707 11.07450104 29.17701721 C12.51130242 33.14859207 13.96564832 37.11371878 15.41943359 41.07910156 C17.19642256 45.92842078 18.97235988 50.77810125 20.74102783 55.63046265 C24.56681537 66.1227422 28.44718808 76.59287569 32.38671875 87.04296875 C32.63455297 87.7007387 32.8823872 88.35850864 33.13773155 89.03621101 C35.2575496 94.66132031 37.38159038 100.28483065 39.5085144 105.90725708 C40.78192199 109.27566194 42.05145096 112.64550564 43.3203125 116.015625 C43.69713669 117.00809738 44.07396088 118.00056976 44.46220398 119.02311707 C44.79968155 119.92073257 45.13715912 120.81834808 45.48486328 121.74316406 C45.7795047 122.52242249 46.07414612 123.30168091 46.37771606 124.10455322 C47 126 47 126 47 128 C44.92227529 128.86772029 42.83756823 129.71873619 40.75 130.5625 C39.58984375 131.03816406 38.4296875 131.51382813 37.234375 132.00390625 C32.8537818 133.35300198 32.8537818 133.35300198 30 132 C28.62854004 129.50299072 28.62854004 129.50299072 27.38476562 126.11816406 C27.15258426 125.49988896 26.92040289 124.88161386 26.68118572 124.24460316 C25.90772981 122.17355616 25.15723787 120.09491411 24.40625 118.015625 C23.86204994 116.54548573 23.31639021 115.07588607 22.7693634 113.60679626 C21.29961444 109.6481987 19.84904582 105.68281915 18.40182877 101.71593857 C16.90175455 97.61417224 15.38448361 93.51878778 13.86791992 89.4230957 C12.02771803 84.45077032 10.18879655 79.47799697 8.35746765 74.50239563 C4.54854236 64.15661523 0.68983294 53.8314245 -3.23046875 43.52734375 C-3.70676576 42.27420392 -4.18305375 41.02106067 -4.65933228 39.76791382 C-6.43419679 35.10121686 -8.21064545 30.4351416 -9.99316406 25.7713623 C-11.19120539 22.6343674 -12.38331443 19.49517851 -13.57421875 16.35546875 C-13.92598679 15.44014877 -14.27775482 14.5248288 -14.6401825 13.58177185 C-14.95445694 12.75065384 -15.26873138 11.91953583 -15.5925293 11.06323242 C-15.86638962 10.3455217 -16.14024994 9.62781097 -16.42240906 8.88835144 C-17 7 -17 7 -17 4 C-14.92227529 3.13227971 -12.83756823 2.28126381 -10.75 1.4375 C-9.58984375 0.96183594 -8.4296875 0.48617188 -7.234375 -0.00390625 C-2.87495842 -1.3464802 -2.87495842 -1.3464802 0 0 Z " fill="#000000" transform="translate(169,14)"/>
<path d="M0 0 C1.32676697 2.40089417 1.32676697 2.40089417 2.50756836 5.65063477 C2.96073929 6.87317459 3.41391022 8.09571442 3.8808136 9.3553009 C4.36740199 10.71724851 4.85373739 12.07928652 5.33984375 13.44140625 C5.85880113 14.85837359 6.37923452 16.27480111 6.90104675 17.6907196 C8.30603423 21.5145453 9.69185397 25.34506707 11.07450104 29.17701721 C12.51130242 33.14859207 13.96564832 37.11371878 15.41943359 41.07910156 C17.19642256 45.92842078 18.97235988 50.77810125 20.74102783 55.63046265 C24.56681537 66.1227422 28.44718808 76.59287569 32.38671875 87.04296875 C32.63455297 87.7007387 32.8823872 88.35850864 33.13773155 89.03621101 C35.2575496 94.66132031 37.38159038 100.28483065 39.5085144 105.90725708 C40.78192199 109.27566194 42.05145096 112.64550564 43.3203125 116.015625 C43.69713669 117.00809738 44.07396088 118.00056976 44.46220398 119.02311707 C44.79968155 119.92073257 45.13715912 120.81834808 45.48486328 121.74316406 C45.7795047 122.52242249 46.07414612 123.30168091 46.37771606 124.10455322 C47 126 47 126 47 128 C44.92227529 128.86772029 42.83756823 129.71873619 40.75 130.5625 C39.58984375 131.03816406 38.4296875 131.51382813 37.234375 132.00390625 C32.8537818 133.35300198 32.8537818 133.35300198 30 132 C28.62854004 129.50299072 28.62854004 129.50299072 27.38476562 126.11816406 C27.15258426 125.49988896 26.92040289 124.88161386 26.68118572 124.24460316 C25.90772981 122.17355616 25.15723787 120.09491411 24.40625 118.015625 C23.86204994 116.54548573 23.31639021 115.07588607 22.7693634 113.60679626 C21.29961444 109.6481987 19.84904582 105.68281915 18.40182877 101.71593857 C16.90175455 97.61417224 15.38448361 93.51878778 13.86791992 89.4230957 C12.02771803 84.45077032 10.18879655 79.47799697 8.35746765 74.50239563 C4.54854236 64.15661523 0.68983294 53.8314245 -3.23046875 43.52734375 C-3.70676576 42.27420392 -4.18305375 41.02106067 -4.65933228 39.76791382 C-6.43419679 35.10121686 -8.21064545 30.4351416 -9.99316406 25.7713623 C-11.19120539 22.6343674 -12.38331443 19.49517851 -13.57421875 16.35546875 C-13.92598679 15.44014877 -14.27775482 14.5248288 -14.6401825 13.58177185 C-14.95445694 12.75065384 -15.26873138 11.91953583 -15.5925293 11.06323242 C-15.86638962 10.3455217 -16.14024994 9.62781097 -16.42240906 8.88835144 C-17 7 -17 7 -17 4 C-14.92227529 3.13227971 -12.83756823 2.28126381 -10.75 1.4375 C-9.58984375 0.96183594 -8.4296875 0.48617188 -7.234375 -0.00390625 C-2.87495842 -1.3464802 -2.87495842 -1.3464802 0 0 Z " fill="#000000" transform="translate(313,366)"/>
<path d="M0 0 C3.79514548 0.53253374 7.23257839 1.72542084 10.8125 3.0625 C11.78832031 3.42472656 12.76414063 3.78695313 13.76953125 4.16015625 C14.50558594 4.43730469 15.24164063 4.71445312 16 5 C13.62361861 13.56285165 10.53443653 21.83881421 7.3984375 30.14453125 C6.84285973 31.62331304 6.28756867 33.10220257 5.73254395 34.58119202 C4.25504708 38.51576846 2.77347089 42.44879653 1.29097748 46.38149261 C-0.2403757 50.44570924 -1.76813913 54.51127498 -3.29638672 58.57666016 C-6.30840049 66.58703513 -9.32504534 74.59565911 -12.34326172 82.60369873 C-13.86912215 86.65226813 -15.3937696 90.7012932 -16.91796875 94.75048828 C-19.31812173 101.12615267 -21.72068522 107.500904 -24.125 113.875 C-24.47975403 114.81606598 -24.83450806 115.75713196 -25.20001221 116.72671509 C-26.1764104 119.31566188 -27.15430356 121.90403786 -28.1328125 124.4921875 C-28.41378784 125.23759293 -28.69476318 125.98299835 -28.98425293 126.75099182 C-30.88468183 131.76936366 -30.88468183 131.76936366 -32 134 C-37.69139902 132.90301833 -42.74567937 131.45946923 -48 129 C-47.40008028 124.68650492 -46.3606478 120.8943404 -44.81713867 116.82592773 C-44.13225372 115.00837227 -44.13225372 115.00837227 -43.43353271 113.15409851 C-42.92843894 111.83056097 -42.42324795 110.50706052 -41.91796875 109.18359375 C-41.39007326 107.78862249 -40.86268008 106.39346105 -40.33575439 104.99812317 C-38.91933284 101.25137878 -37.49622792 97.50720634 -36.07178879 93.76350403 C-34.59558774 89.88055353 -33.12526033 85.99538091 -31.65454102 82.11035156 C-29.86180317 77.37578972 -28.06842815 72.64147317 -26.27220154 67.90823364 C-22.69402079 58.47894557 -19.12933789 49.04474599 -15.58334923 39.60330391 C-14.87040151 37.70513845 -14.15705396 35.80712377 -13.44355774 33.90916443 C-10.78997911 26.85054933 -10.78997911 26.85054933 -8.14022827 19.79049683 C-6.9488491 16.61459302 -5.75414245 13.43996108 -4.55859375 10.265625 C-4.20879456 9.33047562 -3.85899536 8.39532623 -3.49859619 7.43183899 C-3.18122498 6.59098251 -2.86385376 5.75012604 -2.53686523 4.88378906 C-2.12488136 3.78698822 -2.12488136 3.78698822 -1.70457458 2.66802979 C-1 1 -1 1 0 0 Z " fill="#000000" transform="translate(200,365)"/>
<path d="M0 0 C8.56285165 2.37638139 16.83881421 5.46556347 25.14453125 8.6015625 C26.62331304 9.15714027 28.10220257 9.71243133 29.58119202 10.26745605 C33.51576846 11.74495292 37.44879653 13.22652911 41.38149261 14.70902252 C45.44570924 16.2403757 49.51127498 17.76813913 53.57666016 19.29638672 C61.58703513 22.30840049 69.59565911 25.32504534 77.60369873 28.34326172 C81.65226813 29.86912215 85.7012932 31.3937696 89.75048828 32.91796875 C96.12615267 35.31812173 102.500904 37.72068522 108.875 40.125 C109.81606598 40.47975403 110.75713196 40.83450806 111.72671509 41.20001221 C114.31566188 42.1764104 116.90403786 43.15430356 119.4921875 44.1328125 C120.23759293 44.41378784 120.98299835 44.69476318 121.75099182 44.98425293 C126.76936366 46.88468183 126.76936366 46.88468183 129 48 C128.34309381 51.78239671 127.279869 55.21841526 125.9375 58.8125 C125.57527344 59.78832031 125.21304688 60.76414062 124.83984375 61.76953125 C124.56269531 62.50558594 124.28554688 63.24164063 124 64 C119.68650492 63.40008028 115.8943404 62.3606478 111.82592773 60.81713867 C110.61422409 60.3605336 109.40252045 59.90392853 108.15409851 59.43348694 C106.83056734 58.92839172 105.50706669 58.42321652 104.18359375 57.91796875 C102.78862573 57.3902019 101.3934642 56.86294626 99.99812317 56.33616638 C96.25129594 54.92002521 92.5070692 53.49713419 88.76350403 52.07239532 C82.52308188 49.69831501 76.27946033 47.33264391 70.03658676 44.96501923 C67.66024319 44.06347531 65.28423517 43.16105087 62.90823364 42.25860596 C53.4901638 38.68417062 44.05654516 35.15554302 34.60330391 31.67523384 C30.30461727 30.09094928 26.00979739 28.49619693 21.71414185 26.90371704 C19.40826265 26.05254894 17.10037422 25.20680399 14.79049683 24.36654663 C11.61015149 23.20890822 8.43737165 22.03251498 5.265625 20.8515625 C3.86290092 20.35008949 3.86290092 20.35008949 2.43183899 19.83848572 C1.59098251 19.52134109 0.75012604 19.20419647 -0.11621094 18.87744141 C-0.8474115 18.60944733 -1.57861206 18.34145325 -2.33197021 18.06533813 C-4 17 -4 17 -4.80499268 15.08480835 C-5.11433444 11.77765929 -3.80808582 9.28801419 -2.5625 6.25 C-2.08941406 5.07953125 -1.61632812 3.9090625 -1.12890625 2.703125 C-0.75636719 1.81109375 -0.38382812 0.9190625 0 0 Z " fill="#000000" transform="translate(370,296)"/>
<path d="M0 0 C0.86772029 2.07772471 1.71873619 4.16243177 2.5625 6.25 C3.03816406 7.41015625 3.51382813 8.5703125 4.00390625 9.765625 C5.3464802 14.12504158 5.3464802 14.12504158 4 17 C1.59910583 18.32676697 1.59910583 18.32676697 -1.65063477 19.50756836 C-2.87317459 19.96073929 -4.09571442 20.41391022 -5.3553009 20.8808136 C-6.71724851 21.36740199 -8.07928652 21.85373739 -9.44140625 22.33984375 C-10.85837359 22.85880113 -12.27480111 23.37923452 -13.6907196 23.90104675 C-17.5145453 25.30603423 -21.34506707 26.69185397 -25.17701721 28.07450104 C-29.14859207 29.51130242 -33.11371878 30.96564832 -37.07910156 32.41943359 C-41.92842078 34.19642256 -46.77810125 35.97235988 -51.63046265 37.74102783 C-62.1227422 41.56681537 -72.59287569 45.44718808 -83.04296875 49.38671875 C-83.7007387 49.63455297 -84.35850864 49.8823872 -85.03621101 50.13773155 C-90.66132031 52.2575496 -96.28483065 54.38159038 -101.90725708 56.5085144 C-105.27566194 57.78192199 -108.64550564 59.05145096 -112.015625 60.3203125 C-113.00809738 60.69713669 -114.00056976 61.07396088 -115.02311707 61.46220398 C-115.92073257 61.79968155 -116.81834808 62.13715912 -117.74316406 62.48486328 C-118.52242249 62.7795047 -119.30168091 63.07414612 -120.10455322 63.37771606 C-122 64 -122 64 -124 64 C-124.86772029 61.92227529 -125.71873619 59.83756823 -126.5625 57.75 C-127.03816406 56.58984375 -127.51382813 55.4296875 -128.00390625 54.234375 C-129.35300198 49.8537818 -129.35300198 49.8537818 -128 47 C-125.50299072 45.62854004 -125.50299072 45.62854004 -122.11816406 44.38476562 C-121.49988896 44.15258426 -120.88161386 43.92040289 -120.24460316 43.68118572 C-118.17355616 42.90772981 -116.09491411 42.15723787 -114.015625 41.40625 C-112.54548573 40.86204994 -111.07588607 40.31639021 -109.60679626 39.7693634 C-105.6481987 38.29961444 -101.68281915 36.84904582 -97.71593857 35.40182877 C-93.61417224 33.90175455 -89.51878778 32.38448361 -85.4230957 30.86791992 C-80.45077032 29.02771803 -75.47799697 27.18879655 -70.50239563 25.35746765 C-60.15661523 21.54854236 -49.8314245 17.68983294 -39.52734375 13.76953125 C-38.27420392 13.29323424 -37.02106067 12.81694625 -35.76791382 12.34066772 C-31.10121686 10.56580321 -26.4351416 8.78935455 -21.7713623 7.00683594 C-18.6343674 5.80879461 -15.49517851 4.61668557 -12.35546875 3.42578125 C-10.98248878 2.8981292 -10.98248878 2.8981292 -9.58177185 2.3598175 C-8.75065384 2.04554306 -7.91953583 1.73126862 -7.06323242 1.4074707 C-6.3455217 1.13361038 -5.62781097 0.85975006 -4.88835144 0.57759094 C-3 0 -3 0 0 0 Z " fill="#000000" transform="translate(142,296)"/>
<path d="M0 0 C0.8655047 2.26708325 1.71759315 4.53775079 2.5625 6.8125 C2.9327832 7.77639648 2.9327832 7.77639648 3.31054688 8.75976562 C5.11328125 13.66015625 5.11328125 13.66015625 4 17 C1.50299072 18.25120544 1.50299072 18.25120544 -1.88183594 19.50170898 C-2.50011104 19.73374433 -3.11838614 19.96577967 -3.75539684 20.20484638 C-5.82783433 20.97952382 -7.90594957 21.73764318 -9.984375 22.49609375 C-11.45437076 23.04211329 -12.92397292 23.58919354 -14.39320374 24.13726807 C-18.35315822 25.61138977 -22.31808487 27.07167829 -26.28406143 28.52950668 C-30.38465208 30.03940192 -34.48068913 31.56153485 -38.5769043 33.08325195 C-43.54963836 34.93000612 -48.52263636 36.77601583 -53.49760437 38.616745 C-63.83984015 42.44458903 -74.16490517 46.31464782 -84.47265625 50.234375 C-85.7257908 50.71043668 -86.97893397 51.18647567 -88.23208618 51.66249084 C-92.89881329 53.4361337 -97.56511231 55.21084279 -102.2286377 56.9928894 C-105.36565282 58.19096737 -108.50483985 59.38317586 -111.64453125 60.57421875 C-112.55985123 60.92599182 -113.4751712 61.27776489 -114.41822815 61.64019775 C-115.66490517 62.11160187 -115.66490517 62.11160187 -116.93676758 62.5925293 C-118.01333366 63.00331978 -118.01333366 63.00331978 -119.11164856 63.42240906 C-121 64 -121 64 -124 64 C-124.87042243 62.11157486 -125.72075474 60.21388098 -126.5625 58.3125 C-127.27599609 56.72888672 -127.27599609 56.72888672 -128.00390625 55.11328125 C-129.10080287 51.68494161 -129.23905213 50.34219613 -128 47 C-125.59910583 45.55297852 -125.59910583 45.55297852 -122.34936523 44.37890625 C-121.12682541 43.92581085 -119.90428558 43.47271545 -118.6446991 43.00588989 C-117.28277704 42.52443998 -115.92073817 42.04332043 -114.55859375 41.5625 C-113.14148455 41.04536442 -111.72505941 40.52635094 -110.3092804 40.00558472 C-106.48677102 38.60495186 -102.65583234 37.22887196 -98.82298279 35.85683441 C-94.85024489 34.4298786 -90.88576716 32.98038539 -86.92089844 31.53173828 C-82.07197305 29.76131836 -77.2225124 27.99247893 -72.36953735 26.23318481 C-61.87349415 22.42692955 -51.40355952 18.55727609 -40.95703125 14.6171875 C-40.2992613 14.36923683 -39.64149136 14.12128616 -38.96378899 13.86582184 C-33.33863086 11.7448553 -27.71545094 9.61866375 -22.09274292 7.49121094 C-18.72435837 6.21783997 -15.35451236 4.94841053 -11.984375 3.6796875 C-10.99190262 3.30286835 -9.99943024 2.92604919 -8.97688293 2.53781128 C-8.07926743 2.20032867 -7.18165192 1.86284607 -6.25683594 1.51513672 C-5.47757751 1.2204953 -4.69831909 0.92585388 -3.89544678 0.62228394 C-2 0 -2 0 0 0 Z " fill="#000000" transform="translate(494,152)"/>
<path d="M0 0 C3.79514548 0.53253374 7.23257839 1.72542084 10.8125 3.0625 C11.78832031 3.42472656 12.76414062 3.78695313 13.76953125 4.16015625 C14.50558594 4.43730469 15.24164063 4.71445312 16 5 C15.32851917 8.90708451 14.1994745 12.43957452 12.81713867 16.15234375 C12.3605336 17.38413864 11.90392853 18.61593353 11.43348694 19.88505554 C10.92838929 21.23589844 10.42321417 22.58671237 9.91796875 23.9375 C9.39039097 25.35643678 8.86313066 26.77549163 8.33616638 28.19465637 C6.9187614 32.00841237 5.49642369 35.82030835 4.07239532 39.63159561 C3.18883702 41.9964215 2.30595722 44.36149962 1.42327881 46.72665405 C-0.96329744 53.12101352 -3.35025377 59.51522827 -5.74139404 65.90788269 C-9.05297311 74.76408359 -12.34320391 83.62764422 -15.60386658 92.50271606 C-17.42442468 97.45703056 -19.25968453 102.40585746 -21.09628296 107.35424805 C-21.94747448 109.65627002 -22.79321926 111.96031344 -23.63345337 114.26635742 C-24.79070034 117.43964146 -25.96702497 120.60518061 -27.1484375 123.76953125 C-27.48275284 124.70150833 -27.81706818 125.63348541 -28.16151428 126.59370422 C-28.47865891 127.43136826 -28.79580353 128.26903229 -29.12255859 129.13208008 C-29.39055267 129.86026443 -29.65854675 130.58844879 -29.93466187 131.33869934 C-31 133 -31 133 -32.91519165 133.80400085 C-36.22250605 134.11493149 -38.71178274 132.80816908 -41.75 131.5625 C-43.50570313 130.85287109 -43.50570313 130.85287109 -45.296875 130.12890625 C-46.18890625 129.75636719 -47.0809375 129.38382813 -48 129 C-45.66046057 120.6352336 -42.69141005 112.527539 -39.65234375 104.3984375 C-39.12201109 102.97282006 -38.59194772 101.54710242 -38.06213379 100.12129211 C-36.64926699 96.32160382 -35.23244538 92.52340233 -33.81464767 88.72555161 C-32.64165152 85.58219494 -31.47075796 82.43805691 -30.29988194 79.29391003 C-27.36676272 71.41768189 -24.42942484 63.54303508 -21.48954105 55.66932964 C-19.66833806 50.791443 -17.84897781 45.91287407 -16.03125 41.03369141 C-13.88953845 35.2853963 -11.7450639 29.53814302 -9.59744263 23.79205322 C-8.82571728 21.72655243 -8.05477888 19.66075743 -7.28463745 17.59466553 C-6.23283304 14.77432691 -5.17753297 11.95532391 -4.12109375 9.13671875 C-3.66204651 7.902882 -3.66204651 7.902882 -3.19372559 6.64411926 C-1.11454301 1.11454301 -1.11454301 1.11454301 0 0 Z " fill="#000000" transform="translate(344,13)"/>
<path d="M0 0 C8.36478495 2.33954461 16.47238399 5.30876614 24.6015625 8.34765625 C26.02717676 8.87786021 27.45289448 9.40778604 28.87870789 9.93745422 C33.46242222 11.64147771 38.04378833 13.35176205 42.625 15.0625 C44.19605854 15.64882865 45.76713403 16.23511189 47.33822632 16.8213501 C48.11962132 17.11293251 48.90101633 17.40451492 49.70608997 17.70493317 C51.28887641 18.29555039 52.87166488 18.88616216 54.45445538 19.47676849 C58.41481524 20.95460206 62.37499348 22.43291798 66.33482361 23.91217041 C74.77584571 27.06371893 83.22500832 30.19084441 91.6895752 33.27861023 C96.19857132 34.92387455 100.70350517 36.58007587 105.20794678 38.23776245 C107.27171534 38.99374727 109.33751466 39.74421201 111.40533447 40.48904419 C114.23007628 41.50719802 117.04720043 42.54411653 119.86328125 43.5859375 C120.68583908 43.87648514 121.50839691 44.16703278 122.35588074 44.46638489 C124.59106445 45.30615234 124.59106445 45.30615234 128 47 C129.66912232 51.09838498 128.19274338 53.77379664 126.5625 57.75 C126.08941406 58.92046875 125.61632812 60.0909375 125.12890625 61.296875 C124.75636719 62.18890625 124.38382813 63.0809375 124 64 C120.09291549 63.32851917 116.56042548 62.1994745 112.84765625 60.81713867 C111.61586136 60.3605336 110.38406647 59.90392853 109.11494446 59.43348694 C107.76410156 58.92838929 106.41328763 58.42321417 105.0625 57.91796875 C103.64356322 57.39039097 102.22450837 56.86313066 100.80534363 56.33616638 C96.99158763 54.9187614 93.17969165 53.49642369 89.36840439 52.07239532 C87.0035785 51.18883702 84.63850038 50.30595722 82.27334595 49.42327881 C75.87898648 47.03670256 69.48477173 44.64974623 63.09211731 42.25860596 C54.23591641 38.94702689 45.37235578 35.65679609 36.49728394 32.39613342 C31.54296944 30.57557532 26.59414254 28.74031547 21.64575195 26.90371704 C19.34372998 26.05252552 17.03968656 25.20678074 14.73364258 24.36654663 C11.56035854 23.20929966 8.39481939 22.03297503 5.23046875 20.8515625 C4.29849167 20.51724716 3.36651459 20.18293182 2.40629578 19.83848572 C1.56863174 19.52134109 0.73096771 19.20419647 -0.13208008 18.87744141 C-1.22435661 18.47545029 -1.22435661 18.47545029 -2.33869934 18.06533813 C-4 17 -4 17 -4.80400085 15.08480835 C-5.11493149 11.77749395 -3.80816908 9.28821726 -2.5625 6.25 C-2.08941406 5.07953125 -1.61632812 3.9090625 -1.12890625 2.703125 C-0.75636719 1.81109375 -0.38382813 0.9190625 0 0 Z " fill="#000000" transform="translate(18,152)"/>
</svg>
